<svg id="Layer_1" enable-background="new 0 0 512.002 512.002" height="512" viewBox="0 0 512.002 512.002" width="512" xmlns="http://www.w3.org/2000/svg"><g><g clip-rule="evenodd" fill-rule="evenodd"><path d="m264.43 312.216 120.962-121.861c4.641-4.667 4.62-12.213-.046-16.854-2.325-2.312-5.365-3.501-8.404-3.501h-20.932v-140c0-11-9-20-20-20h-160c-11 0-20 9-20 20v140h-20.898c-6.601 0-11.952 5.351-11.952 11.952 0 3.61 1.6 6.846 4.131 9.037l120.286 121.181c4.64 4.666 12.187 4.687 16.853.046z" fill="#89df8f"/><path d="m243.965 355.66c-62.531 7.766-196.963-50.303-233.468 123.954-2.557 12.208 5.321 22.387 14.658 22.387h100.639c12.113 0 17.543-5.482 20.028-14.756l9.396-18.285 68.459.759c45.034.499 57.872-2.012 100.028-18.916 58.608-23.501 143.585-61.962 162.523-69.083 27.539-10.674 17.222-50.044-16.915-41.479l-111.81 30.14c1.074-2.619 1.51-5.536 1.102-8.795-1.463-11.691-12.263-20.063-23.999-18.605-11.246 1.398-79.395 11.283-90.641 12.679z" fill="#ffdcd5"/></g><g><path d="m510.542 351.081c-4.466-14.048-20.033-26.463-43.661-20.538-.057.014-.113.028-.169.044l-98.739 26.616c-3.56-15.51-18.432-26.151-34.6-24.146-5.704.709-25.002 3.451-45.433 6.354-19.501 2.771-39.666 5.636-45.208 6.324-12.206 1.517-28.451.232-45.652-1.127-6.068-.479-12.345-.976-18.767-1.381-5.525-.362-10.262 3.839-10.61 9.351s3.839 10.263 9.351 10.61c6.265.395 12.46.885 18.451 1.358 18.242 1.442 35.471 2.803 49.692 1.036 5.716-.71 25.068-3.46 45.557-6.371 19.446-2.764 39.555-5.62 45.085-6.308 6.295-.773 12.062 3.67 12.844 9.924.248 1.979.906 7.235-12.923 13.575-28.441 13.039-58.753 24.201-83.161 30.622-5.342 1.405-8.532 6.874-7.127 12.215 1.404 5.342 6.872 8.531 12.215 7.127 25.472-6.7 56.967-18.285 86.409-31.784 10.231-4.69 16.471-10.154 20.113-15.652l107.617-29.01c11.852-2.947 17.931 1.791 19.655 7.218 1.663 5.23-.425 11.967-8.829 15.242-8.376 3.155-28.419 11.874-53.777 22.906-33.639 14.634-75.503 32.846-108.892 46.234-41.066 16.468-52.744 18.661-96.196 18.197l-68.459-.758c-.037-.001-.074-.001-.111-.001-3.744 0-7.179 2.094-8.894 5.429l-9.396 18.284c-.324.633-.581 1.297-.765 1.983-1.388 5.18-3.135 7.345-10.368 7.345h-100.638c-1.094 0-2.271-.677-3.229-1.856-.817-1.006-2.613-3.846-1.643-8.48 12.043-57.486 35.775-93.098 72.554-108.87 5.076-2.177 7.426-8.056 5.249-13.132-2.177-5.075-8.053-7.426-13.132-5.249-43.211 18.53-70.768 58.813-84.246 123.15-1.924 9.187.151 18.368 5.693 25.19 4.773 5.877 11.608 9.247 18.753 9.247h100.639c15.14 0 25.274-7.278 29.377-21.071l6.116-11.902 62.279.689c45.922.521 60.494-2.243 103.86-19.633 33.658-13.496 75.67-31.772 109.427-46.457 24.16-10.511 45.026-19.588 52.895-22.547.031-.012.063-.024.095-.036 19.525-7.564 25.191-25.829 20.699-39.961z"/><path d="m216.009 122.84c16.542 0 30-13.458 30-30s-13.458-30-30-30-30 13.458-30 30 13.458 30 30 30zm0-40c5.514 0 10 4.486 10 10s-4.486 10-10 10-10-4.486-10-10 4.486-10 10-10z"/><path d="m266.009 172.84c0 16.543 13.458 30.001 30 30.001s30-13.458 30-30.001c0-16.542-13.458-29.999-30-29.999s-30 13.457-30 29.999zm40 0c0 5.515-4.486 10.001-10 10.001s-10-4.486-10-10.001c0-5.514 4.486-9.999 10-9.999s10 4.485 10 9.999z"/><path d="m216.368 201.501c1.575.909 3.294 1.342 4.99 1.342 3.456 0 6.818-1.794 8.67-5.002l69.281-120c2.762-4.783 1.123-10.898-3.66-13.66-4.784-2.763-10.899-1.122-13.66 3.66l-69.281 120c-2.761 4.783-1.123 10.898 3.66 13.66z"/><path d="m120.419 198.262 120.067 120.958c4.128 4.151 9.625 6.447 15.48 6.464h.063c5.832 0 11.318-2.264 15.499-6.423l120.96-121.858c8.517-8.568 8.478-22.47-.09-30.992-4.156-4.134-9.646-6.41-15.456-6.41h-10.933v-130.001c0-16.542-13.458-30-30-30h-160c-16.542 0-30 13.458-30 30v130h-10.897c-12.104 0-21.952 9.848-21.952 21.951 0 6.229 2.64 12.149 7.259 16.311zm14.693-18.262h20.897c5.522 0 10-4.478 10-10v-140c0-5.514 4.486-10 10-10h160c5.514 0 10 4.486 10 10v140c0 5.522 4.478 10 10 10h20.933c.283 0 .835.077 1.352.591.75.746.754 1.963.008 2.713-.002.002-.004.005-.007.007l-120.918 121.815c-.462.46-.988.557-1.35.557-.002 0-.004 0-.006 0-.362-.001-.892-.1-1.348-.559l-120.286-121.18c-.178-.178-.361-.35-.551-.515-.253-.219-.678-.702-.678-1.479.002-1.075.877-1.95 1.954-1.95z"/><path d="m132.681 343.196c-5.522 0-9.996 4.478-9.996 10s4.48 10 10.003 10c5.522 0 10-4.478 10-10s-4.478-10-10-10z"/></g></g></svg>