<svg height="512pt" viewBox="0 -22 512 511" width="512pt" xmlns="http://www.w3.org/2000/svg"><path d="m500.785156 154.082031c0 72.324219-52.570312 132.363281-121.574218 144.007813-7.960938 1.332031-16.128907 2.035156-24.472657 2.035156-80.667969 0-146.054687-65.378906-146.054687-146.042969 0-80.660156 65.386718-146.046875 146.054687-146.046875 8.34375 0 16.511719.703125 24.472657 2.039063 69.003906 11.644531 121.574218 71.691406 121.574218 144.007812zm0 0" fill="#ffc14f"/><path d="m500.785156 154.082031c0 72.324219-52.570312 132.363281-121.574218 144.007813-69.011719-11.644532-121.582032-71.683594-121.582032-144.007813 0-72.328125 52.570313-132.363281 121.582032-144.007812 69.003906 11.644531 121.574218 71.691406 121.574218 144.007812zm0 0" fill="#ffd993"/><path d="m494.199219 361.851562-172.480469 87.453126c-23.175781 14.746093-52.652344 14.488281-75.457031-.199219-10.707031-6.902344-14.066407-7.570313-70.359375-35.402344-25.015625-12.238281-47.800782-16.132813-84.945313-20.710937v-108.039063h123.179688c7.648437 0 14.976562 3.042969 20.386719 8.453125 1.695312 1.695312-11.238282-11.234375 55.40625 55.394531 5.0625 5.0625 7.570312 11.820313 7.386718 18.507813l1.183594-.8125 180.789062-45.515625c23.957032-3.027344 34.683594 28.320312 14.910157 40.871093zm0 0" fill="#f2bb88"/><path d="m290.621094 383.429688c-9.507813 9.832031-25.148438 9.984374-34.847656.304687l-46.066407-46.074219c-2.460937-2.460937-5.796875-3.84375-9.273437-3.84375h-109.476563v-48.859375h123.179688c7.652343 0 14.980469 3.035157 20.386719 8.441407 1.695312 1.695312-11.234376-11.230469 55.40625 55.398437 9.402343 9.402344 10.074218 24.921875.691406 34.632813zm0 0" fill="#f2d1a5"/><path d="m97.121094 281.957031v133.566407c0 1.898437-.183594 3.765624-.515625 5.574218 0 0 0 0-.007813 0-2.628906 14.132813-15.097656 24.921875-29.972656 24.921875h-28.601562c-16.773438 0-30.496094-13.722656-30.496094-30.496093v-133.566407c0-16.882812 13.839844-30.496093 30.496094-30.496093h28.601562c16.773438 0 30.496094 13.722656 30.496094 30.496093zm0 0" fill="#5db33a"/><path d="m97.121094 281.957031v133.566407c0 1.898437-.183594 3.765624-.515625 5.574218 0 0 0 0-.007813 0-1.746094.320313-3.535156.480469-5.371094.480469h-28.589843c-16.773438 0-30.496094-13.722656-30.496094-30.496094 0-144.074219-.222656-135.191406.523437-139.140625 3.492188-.640625 2.78125-.480468 33.960938-.480468 16.773438 0 30.496094 13.722656 30.496094 30.496093zm0 0" fill="#6dc54a"/><path d="m70.359375 397.980469c0 9.960937-8.074219 18.035156-18.035156 18.035156-9.960938 0-18.035157-8.074219-18.035157-18.035156 0-9.960938 8.074219-18.035157 18.035157-18.035157 9.960937 0 18.035156 8.074219 18.035156 18.035157zm0 0" fill="#498d2d"/><path d="m478.304688 313.808594c-.675782.089844 3.085937-.828125-57.386719 14.394531-4.03125 1.015625-6.476563 5.105469-5.460938 9.136719 1.015625 4.035156 5.109375 6.476562 9.136719 5.464844l56.089844-14.121094c15.265625-1.632813 22.382812 18.394531 9.726562 26.84375-.515625.261718-171.898437 87.136718-172.386718 87.445312-20.546876 13.078125-46.785157 12.96875-67.183594-.179687-8.757813-5.644531-8.066406-4.980469-70.976563-35.757813-26.53125-12.980468-45.402343-14.964844-75.214843-20.113281v-94.074219h110.058593c5.671875 0 11.011719 2.207032 15.027344 6.222656l55.277344 55.28125c6.675781 6.675782 6.949219 17.445313.601562 24.011719-6.609375 6.835938-17.394531 6.835938-24.039062.210938l-49.800781-49.820313c-2.941407-2.941406-7.707032-2.941406-10.648438 0s-2.941406 7.710938 0 10.648438l49.808594 49.820312c17.976562 17.917969 48.867187 8.734375 53.699218-16.222656l90.757813-22.84375c4.03125-1.015625 6.476563-5.109375 5.460937-9.140625-1.015624-4.03125-5.105468-6.476563-9.136718-5.460937l-87.800782 22.101562c-1.488281-5.113281-4.238281-9.933594-8.25-13.945312l-55.289062-55.289063c-6.859375-6.859375-15.972656-10.632813-25.667969-10.632813h-110.289062c-2.078125-19.011718-18.230469-33.859374-37.792969-33.859374h-28.601562c-20.96875 0-38.023438 17.054687-38.023438 38.027343v86.558594c0 4.15625 3.371094 7.527344 7.527344 7.527344s7.53125-3.371094 7.53125-7.527344v-86.558594c0-12.667969 10.308594-22.96875 22.964844-22.96875h28.601562c11.230469 0 20.617188 8.121094 22.585938 18.800781.539062 2.921876.378906-7.375.378906 137.734376 0 12.667968-10.308594 22.976562-22.964844 22.976562h-28.601562c-12.65625 0-22.964844-10.308594-22.964844-22.976562v-16.894532c0-4.15625-3.375-7.527344-7.53125-7.527344s-7.527344 3.371094-7.527344 7.527344v16.894532c0 20.96875 17.054688 38.035156 38.023438 38.035156h28.601562c20.96875 0 38.023438-17.066406 38.023438-38.035156v-13.324219c26.941406 4.652343 44.316406 6.480469 68.597656 18.363281 62.828125 30.734375 61.5625 29.8125 69.4375 34.886719 25.234375 16.265625 57.648437 16.453125 83.105468.429687.511719-.261718 171.945313-87.160156 172.429688-87.46875 8.628906-5.492187 13.78125-14.878906 13.78125-25.105468 0-17.921876-15.800781-31.898438-33.695312-29.496094zm0 0"/><path d="m77.890625 397.980469c0-14.097657-11.46875-25.566407-25.566406-25.566407-14.097657 0-25.566407 11.46875-25.566407 25.566407 0 14.097656 11.46875 25.566406 25.566407 25.566406 14.097656 0 25.566406-11.46875 25.566406-25.566406zm-36.074219 0c0-5.792969 4.710938-10.507813 10.507813-10.507813 5.792969 0 10.507812 4.710938 10.507812 10.507813 0 5.792969-4.714843 10.507812-10.507812 10.507812-5.796875 0-10.507813-4.714843-10.507813-10.507812zm0 0"/><path d="m354.734375 307.660156c84.683594 0 153.578125-68.894531 153.578125-153.578125 0-132.875-157.667969-202.058593-255.707031-114.699219-3.105469 2.765626-3.378907 7.523438-.613281 10.628907 2.769531 3.105469 7.527343 3.378906 10.628906.613281 25.378906-22.609375 58.089844-35.0625 92.113281-35.0625 76.382813 0 138.519531 62.136719 138.519531 138.519531 0 76.378907-62.136718 138.519531-138.519531 138.519531-113.757813 0-178.664063-130.128906-111.351563-220.929687 2.476563-3.339844 1.777344-8.054687-1.5625-10.53125-3.339843-2.476563-8.054687-1.773437-10.53125 1.566406-74.476562 100.457031-2.898437 244.953125 123.445313 244.953125zm0 0"/><path d="m313.628906 103.800781c0 9.613281-7.792968 17.40625-17.410156 17.40625-9.613281 0-17.410156-7.792969-17.410156-17.40625 0-9.617187 7.796875-17.410156 17.410156-17.410156 9.617188 0 17.410156 7.792969 17.410156 17.410156zm0 0"/><path d="m430.660156 103.800781c0 9.613281-7.792968 17.40625-17.410156 17.40625-9.613281 0-17.410156-7.792969-17.410156-17.40625 0-9.617187 7.796875-17.410156 17.410156-17.410156 9.617188 0 17.410156 7.792969 17.410156 17.410156zm0 0"/><path d="m318.894531 137.773438c-4.15625 0-7.527343 3.371093-7.527343 7.53125v14.988281c0 23.914062 19.453124 43.367187 43.367187 43.367187s43.371094-19.453125 43.371094-43.367187v-14.988281c0-4.160157-3.371094-7.53125-7.53125-7.53125-4.15625 0-7.527344 3.371093-7.527344 7.53125v14.988281c0 15.609375-12.699219 28.308593-28.3125 28.308593-15.609375 0-28.3125-12.699218-28.3125-28.308593v-14.988281c0-4.160157-3.371094-7.53125-7.527344-7.53125zm0 0"/></svg>